<svg width="101" height="102" viewBox="0 0 101 102" fill="none" xmlns="http://www.w3.org/2000/svg">
<ellipse cx="50.9595" cy="50.9603" rx="49.9888" ry="50.9603" fill="#FFEACB"/>
<path d="M51.7352 41.0185C59.0831 41.0185 65.0397 34.9461 65.0397 27.4554C65.0397 19.9647 59.0831 13.8923 51.7352 13.8923C44.3873 13.8923 38.4307 19.9647 38.4307 27.4554C38.4307 34.9461 44.3873 41.0185 51.7352 41.0185Z" stroke="#FF9D2A" stroke-width="4"/>
<path d="M78.3357 68.1447C78.344 67.5879 78.344 67.0223 78.344 66.4493C78.344 58.0222 66.4308 51.1908 51.735 51.1908C37.0392 51.1908 25.126 58.0222 25.126 66.4493C25.126 74.8763 25.126 81.7077 51.735 81.7077C59.1556 81.7077 64.5067 81.1764 68.3657 80.2273" stroke="#FF9D2A" stroke-width="4" stroke-linecap="round"/>
</svg>
