<svg width="50" height="50" viewBox="0 0 50 50" fill="none" xmlns="http://www.w3.org/2000/svg">
<path d="M40.625 2.08331H9.375C4.20625 2.08331 0 6.28956 0 11.4583V30.2083C0 35.3771 4.20625 39.5833 9.375 39.5833H23.9583V45.8333H13.5417C12.9667 45.8333 12.5 46.3 12.5 46.875C12.5 47.45 12.9667 47.9166 13.5417 47.9166H36.4583C37.0333 47.9166 37.5 47.45 37.5 46.875C37.5 46.3 37.0333 45.8333 36.4583 45.8333H26.0417V39.5833H40.625C45.7937 39.5833 50 35.3771 50 30.2083V11.4583C50 6.28956 45.7937 2.08331 40.625 2.08331ZM9.375 4.16665H40.625C44.6458 4.16665 47.9167 7.43748 47.9167 11.4583V29.1666H2.08333V11.4583C2.08333 7.43748 5.35417 4.16665 9.375 4.16665ZM40.625 37.5H9.375C5.7125 37.5 2.7 34.775 2.18958 31.25H47.8104C47.3 34.775 44.2875 37.5 40.625 37.5Z" fill="#1E1E1E"/>
</svg>
