<svg width="50" height="50" viewBox="0 0 50 50" fill="none" xmlns="http://www.w3.org/2000/svg">
<path d="M45.1296 22.2458C44.5546 22.2625 44.1025 22.7437 44.1191 23.3188C44.1421 24.0562 44.1546 24.8062 44.1546 25.575C44.1546 27.0688 44.1066 28.5917 44.0129 30.1146C37.0775 30.7729 31.9775 32.2333 31.7608 32.2958C31.4191 32.3958 31.1525 32.6625 31.0504 33.0042C30.9879 33.2188 29.5316 38.2479 28.9066 45.6792C27.415 45.7833 25.9421 45.8375 24.5212 45.8375C16.3608 45.8375 9.09831 44.1062 7.07331 43.5792C6.55456 41.6042 4.88997 34.5438 4.88997 25.5771C4.88997 16.6979 6.55872 9.56875 7.07539 7.57709C9.10247 7.05 16.3671 5.31875 24.5212 5.31875L25.5129 5.32708C26.1337 5.25 26.5608 4.875 26.5712 4.30208C26.5796 3.72708 26.1212 3.25417 25.5462 3.24375L24.5233 3.23542C14.6566 3.23125 6.28997 5.62083 5.93789 5.72292C5.59622 5.82292 5.32956 6.08958 5.22747 6.43125C5.12956 6.76875 2.80664 14.8083 2.80664 25.5729C2.80664 36.4312 5.12956 44.3854 5.22747 44.7188C5.32747 45.0583 5.59622 45.325 5.93581 45.4229C6.28581 45.525 14.6337 47.9146 24.5191 47.9146C26.2775 47.9146 28.1087 47.8354 29.9608 47.6833C30.2108 47.6625 30.4462 47.5521 30.6212 47.3708L45.7379 31.7958C45.9087 31.6208 46.0108 31.3896 46.0296 31.1458C46.165 29.2812 46.2358 27.4062 46.2358 25.5708C46.2358 24.7833 46.2233 24.0083 46.2004 23.2521C46.1837 22.6771 45.69 22.2729 45.1275 22.2417L45.1296 22.2458ZM32.9004 34.1437C34.215 33.8 37.7358 32.9521 42.2525 32.4L31.1837 43.8042C31.715 39.0083 32.5587 35.4583 32.9004 34.1437Z" fill="#1E1E1E"/>
<path d="M47.1835 8.42289C47.1689 8.31873 46.8189 5.82497 45.1126 4.11664C43.396 2.44997 40.8814 2.10622 40.7751 2.09164C40.5355 2.06039 40.2897 2.11247 40.0855 2.24372C39.896 2.36247 35.3647 5.26039 25.998 14.5083C16.1293 24.2521 13.5293 28.075 13.421 28.2333C13.3272 28.3729 13.2689 28.5354 13.2501 28.7021L12.5605 35.1562C12.5272 35.4687 12.6376 35.7791 12.8585 36.0021C13.0543 36.2 13.321 36.3083 13.596 36.3083C13.6314 36.3083 13.6689 36.3083 13.7043 36.3021L20.2418 35.6187C20.4064 35.6021 20.5647 35.5458 20.7043 35.4541C20.8647 35.35 24.7355 32.7812 34.6022 23.0375C43.971 13.7896 46.9043 9.31247 47.0251 9.12706C47.1585 8.91872 47.2147 8.66873 47.1835 8.42289ZM33.1397 21.5541C24.6793 29.9083 20.6564 32.9333 19.7605 33.575L14.771 34.0958L15.2939 29.1937C15.9501 28.2979 19.0168 24.3271 27.4605 15.9896C35.2397 8.30831 39.6751 5.05206 40.8689 4.22498C41.4876 4.36456 42.7668 4.73956 43.6501 5.59789C44.5189 6.46872 44.9022 7.71456 45.0439 8.32914C44.1939 9.52289 40.896 13.8979 33.1397 21.5541Z" fill="#1E1E1E"/>
</svg>
