<svg width="50" height="50" viewBox="0 0 50 50" fill="none" xmlns="http://www.w3.org/2000/svg">
<g clip-path="url(#clip0_284_26)">
<path d="M50 32.2917C50 32.8667 49.5333 33.3334 48.9583 33.3334H46.5271C44.9604 33.3334 43.4062 33.85 42.1521 34.7917L29.4604 44.3083C28.1521 45.325 26.5792 45.8354 25.0021 45.8354C23.425 45.8354 21.8396 45.3229 20.5229 44.2958L7.84583 34.7917C6.59167 33.85 5.0375 33.3334 3.47083 33.3334H1.04167C0.466667 33.3334 0 32.8667 0 32.2917C0 31.7167 0.466667 31.25 1.04167 31.25H3.47292C5.48958 31.25 7.48542 31.9146 9.09583 33.1229L21.7875 42.6396C23.6833 44.1188 26.3146 44.1125 28.1979 42.6521L40.9042 33.1229C41.3521 32.7875 41.8292 32.4959 42.3292 32.2459L27.1646 20.875L24.4333 23.4896C23.4667 24.4563 22.1458 25 20.7687 25C18.9917 25 17.4271 24.0688 16.5208 22.8104C15.0562 20.7771 15.3646 17.8271 17.2437 15.95L23.5542 10.0084L21.5 8.13752C19.2792 6.11669 15.8104 5.75627 13.3 7.0146L8.47708 9.4271C7.18125 10.075 5.73125 10.4167 4.28333 10.4167H1.04167C0.466667 10.4167 0 9.95002 0 9.37502C0 8.80002 0.466667 8.33335 1.04167 8.33335H4.28333C5.40833 8.33335 6.5375 8.06669 7.54375 7.5646L12.3667 5.1521C13.6521 4.50627 15.0958 4.16669 16.5396 4.16669C18.9458 4.16669 21.1792 5.03127 22.9021 6.59794L25.0729 8.5771L27.0625 6.70419C29.8521 4.07919 34.2229 3.44377 37.6312 5.1521L42.4542 7.5646C43.4604 8.06669 44.5896 8.33335 45.7146 8.33335H48.9562C49.5312 8.33335 49.9979 8.80002 49.9979 9.37502C49.9979 9.95002 49.5312 10.4167 48.9562 10.4167H45.7146C44.2687 10.4167 42.8167 10.075 41.5208 9.4271L36.6979 7.0146C34.0479 5.68544 30.6542 6.18127 28.4896 8.22085L18.6917 17.4459C17.55 18.5875 17.3354 20.3792 18.2104 21.5938C18.7667 22.3646 19.5833 22.8313 20.5125 22.9063C21.4208 22.9729 22.325 22.6521 22.975 22L31.6521 13.6938C32.0667 13.2959 32.7271 13.3104 33.125 13.7271C33.5208 14.1417 33.5083 14.8021 33.0917 15.2L28.6896 19.4146L44.7125 31.4313C45.3083 31.3125 45.9167 31.25 46.5271 31.25H48.9583C49.5333 31.25 50 31.7167 50 32.2917Z" fill="#1E1E1E"/>
</g>
<defs>
<clipPath id="clip0_284_26">
<rect width="50" height="50" fill="white"/>
</clipPath>
</defs>
</svg>
