<svg width="377" height="166" viewBox="0 0 377 166" fill="none" xmlns="http://www.w3.org/2000/svg">
<path d="M269.745 4.61204L371.99 159.572C373.525 161.899 371.856 165 369.069 165H128.435C125.411 165 123.81 161.424 125.825 159.169L264.213 4.20826C265.743 2.49524 268.48 2.69504 269.745 4.61204Z" fill="#FFEACB" stroke="black"/>
<path d="M172.406 161.5H8.77887C5.77693 161.5 4.16794 157.969 6.13771 155.703L100.754 46.8915C101.278 46.2893 101.991 45.8842 102.777 45.7432L136.889 39.6205C138.636 39.307 140.341 40.3504 140.856 42.0485L175.755 156.983C176.438 159.231 174.756 161.5 172.406 161.5Z" fill="#FFEACB" stroke="black"/>
<path d="M253.044 27.5713L230.942 40.8322L264.236 4.12338C265.764 2.43876 268.468 2.63597 269.735 4.52446L291.493 36.947L276.485 31.0348L276.186 30.9172L275.955 31.1396L263.399 43.2126L253.725 27.735L253.465 27.3186L253.044 27.5713Z" fill="white" stroke="black"/>
</svg>
