<svg width="50" height="50" viewBox="0 0 50 50" fill="none" xmlns="http://www.w3.org/2000/svg">
<g clip-path="url(#clip0_284_44)">
<path d="M50 49.0083C50 49.5833 49.5312 50.05 48.9583 50.05L7.29167 50C3.27292 50 0 46.7292 0 42.7083V1.04167C0 0.466667 0.466667 0 1.04167 0C1.61667 0 2.08333 0.466667 2.08333 1.04167V42.7083C2.08333 45.5792 4.42083 47.9167 7.29167 47.9167L48.9604 47.9667C49.5333 47.9667 50 48.4354 50 49.0083ZM10.4167 26.0917V40.625C10.4167 41.2 10.8833 41.6667 11.4583 41.6667C12.0333 41.6667 12.5 41.2 12.5 40.625V26.0917C12.5 25.5167 12.0333 25.05 11.4583 25.05C10.8833 25.05 10.4167 25.5167 10.4167 26.0917ZM20.8333 21.925V40.625C20.8333 41.2 21.3 41.6667 21.875 41.6667C22.45 41.6667 22.9167 41.2 22.9167 40.625V21.925C22.9167 21.35 22.45 20.8833 21.875 20.8833C21.3 20.8833 20.8333 21.35 20.8333 21.925ZM31.25 28.175V40.625C31.25 41.2 31.7167 41.6667 32.2917 41.6667C32.8667 41.6667 33.3333 41.2 33.3333 40.625V28.175C33.3333 27.6 32.8667 27.1333 32.2917 27.1333C31.7167 27.1333 31.25 27.6 31.25 28.175ZM41.6667 19.7917V40.625C41.6667 41.2 42.1333 41.6667 42.7083 41.6667C43.2833 41.6667 43.75 41.2 43.75 40.625V19.7917C43.75 19.2167 43.2833 18.75 42.7083 18.75C42.1333 18.75 41.6667 19.2167 41.6667 19.7917ZM9.375 18.75C9.64167 18.75 9.90833 18.6479 10.1125 18.4458L19.4333 9.125C20.2062 8.35208 21.4625 8.35208 22.2354 9.125L28.3771 15.2688C29.9646 16.85 32.5396 16.85 34.1271 15.2688L47.6125 1.77917C48.0187 1.37292 48.0187 0.7125 47.6125 0.30625C47.2062 -0.1 46.5458 -0.1 46.1396 0.30625L32.6521 13.7938C31.8792 14.5667 30.6208 14.5667 29.8479 13.7938L23.7062 7.65208C22.1208 6.06667 19.5437 6.06667 17.9583 7.65208L8.6375 16.9729C8.23125 17.3792 8.23125 18.0396 8.6375 18.4458C8.84167 18.65 9.10833 18.75 9.375 18.75Z" fill="#1E1E1E"/>
</g>
<defs>
<clipPath id="clip0_284_44">
<rect width="50" height="50" fill="white"/>
</clipPath>
</defs>
</svg>
