<svg width="50" height="50" viewBox="0 0 50 50" fill="none" xmlns="http://www.w3.org/2000/svg">
<g clip-path="url(#clip0_284_24)">
<path d="M32.2917 12.5C29.4208 12.5 27.0833 14.8375 27.0833 17.7083C27.0833 20.5792 29.4208 22.9167 32.2917 22.9167C35.1625 22.9167 37.5 20.5792 37.5 17.7083C37.5 14.8375 35.1625 12.5 32.2917 12.5ZM32.2917 20.8333C30.5687 20.8333 29.1667 19.4312 29.1667 17.7083C29.1667 15.9854 30.5687 14.5833 32.2917 14.5833C34.0146 14.5833 35.4167 15.9854 35.4167 17.7083C35.4167 19.4312 34.0146 20.8333 32.2917 20.8333ZM50 5.20833C50 2.3375 47.6625 0 44.7625 0C34.4667 0.29375 25.0875 5.31667 17.4479 14.5854C14.1437 14.625 10.8479 15.4271 7.89583 16.9083C3.1 19.3146 0 24.5354 0 30.2083V31.25H10.4167C12.6417 31.25 14.7354 32.1167 16.3104 33.6896C17.8833 35.2646 18.75 37.3562 18.75 39.5833V50H19.7917C25.4646 50 30.6854 46.9021 33.0917 42.1063C34.575 39.1542 35.375 35.8562 35.4146 32.5521C44.6812 24.9125 49.7062 15.5312 50 5.20833ZM8.82917 18.7708C10.9833 17.6896 13.3396 17.0104 15.7396 16.7687C15.5354 17.0437 15.3312 17.3208 15.1292 17.6021C11.8938 22.1167 9.47917 27.3604 8.6875 29.1667H2.12292C2.46875 24.6875 5.025 20.6792 8.82917 18.7708ZM31.2292 41.1708C29.3187 44.975 25.3125 47.5312 20.8333 47.8771V41.3125C22.6417 40.5208 27.8833 38.1063 32.4 34.8708C32.6812 34.6688 32.9583 34.4667 33.2333 34.2625C32.9917 36.6625 32.3125 39.0187 31.2312 41.1729L31.2292 41.1708ZM31.1854 33.1771C27.4292 35.8687 23.0312 38.0208 20.8187 39.0333C20.6854 36.4583 19.6187 34.0562 17.7833 32.2188C15.9458 30.3812 13.5437 29.3167 10.9687 29.1833C11.9812 26.9708 14.1333 22.5729 16.825 18.8167C22.1437 11.3937 31.3187 2.46667 44.7917 2.08333C46.5146 2.08333 47.9167 3.48542 47.9167 5.17917C47.5333 18.6812 38.6062 27.8562 31.1854 33.1771ZM3.60833 39.025C1.8375 40.7938 0.652083 47.1104 0.433333 48.3583L0.175 49.8229L1.63958 49.5646C2.8875 49.3458 9.20417 48.1604 10.9729 46.3896C11.9563 45.4062 12.4979 44.0979 12.4979 42.7062C12.4979 41.3146 11.9563 40.0062 10.9729 39.0229C9.00833 37.0563 5.57292 37.0583 3.60833 39.025ZM9.5 44.9167C8.69583 45.7208 5.47083 46.6479 2.77708 47.2208C3.35 44.5271 4.27708 41.3021 5.08125 40.4979C5.67083 39.9083 6.45625 39.5833 7.29167 39.5833C8.12708 39.5833 8.91042 39.9083 9.50208 40.4979C10.0937 41.0875 10.4167 41.8729 10.4167 42.7083C10.4167 43.5437 10.0917 44.3271 9.50208 44.9188L9.5 44.9167Z" fill="#1E1E1E"/>
</g>
<defs>
<clipPath id="clip0_284_24">
<rect width="50" height="50" fill="white"/>
</clipPath>
</defs>
</svg>
