<svg width="50" height="50" viewBox="0 0 50 50" fill="none" xmlns="http://www.w3.org/2000/svg">
<g clip-path="url(#clip0_284_31)">
<path d="M24.9997 49.8937C24.8393 49.8937 24.681 49.8563 24.5331 49.7833L23.6477 49.3417C19.0768 47.0542 4.16016 38.5271 4.16016 24.7583L4.16432 13.6208C4.16432 9.57292 6.74557 5.99584 10.5893 4.72292L24.6727 0.0520874C24.8852 -0.0187459 25.1164 -0.0187459 25.3268 0.0520874L39.4081 4.72084C43.2518 5.99584 45.8331 9.57292 45.8331 13.6188L45.8268 24.7563C45.8268 40.3771 30.8852 47.6042 26.306 49.4479L25.3872 49.8167C25.2622 49.8667 25.1289 49.8917 24.9977 49.8917L24.9997 49.8937ZM24.9997 2.13959L11.2456 6.7C8.25599 7.69167 6.24974 10.4729 6.24974 13.6208L6.24557 24.7583C6.24557 37.3313 20.2789 45.3292 24.581 47.4792L25.0477 47.7125L25.531 47.5188C29.8039 45.8 43.7456 39.0771 43.7456 24.7604L43.7518 13.6229C43.7518 10.475 41.7435 7.69375 38.756 6.70209L24.9997 2.13959Z" fill="#1E1E1E"/>
<path d="M22.877 31.25C21.5415 31.25 20.2061 30.7417 19.1895 29.725L12.8228 23.6729C12.4061 23.2771 12.3895 22.6167 12.7853 22.2C13.1811 21.7854 13.8395 21.7667 14.2582 22.1625L20.6436 28.2333C21.8811 29.4687 23.8624 29.4708 25.0811 28.2521L36.7728 16.9604C37.1895 16.5625 37.8499 16.575 38.2457 16.9875C38.6457 17.4 38.6353 18.0604 38.2207 18.4604L26.5395 29.7396C25.5332 30.7458 24.204 31.2521 22.8749 31.2521L22.877 31.25Z" fill="#1E1E1E"/>
</g>
<defs>
<clipPath id="clip0_284_31">
<rect width="50" height="50" fill="white"/>
</clipPath>
</defs>
</svg>
